# xmcd CD database file
#
# Track frame offsets:
#	150
#	20765
#	40235
#	56377
#	68137
#	88147
#	101512
#	118305
#	134275
#	150787
#	166187
#	183587
#	201115
#	216587
#	233635
#	246510
#	265922
#	277347
#	298930
#	315892
#
# Disc length: 4432 seconds
#
# Revision: 5
# Processed by: cddbd v1.5.1PL0 Copyright (c) Steve Scherf et al.
# Submitted via: CDex 1.51
#
DISCID=2d114e14
DTITLE=Garth Brooks - The Hits
DYEAR=1995
DGENRE=Country
TTITLE0=Ain't Going Down (Til The Sun Comes Up)
TTITLE1=Friends In Low Places
TTITLE2=Burning Bridges
TTITLE3=Callin' Baton Rouge
TTITLE4=The River
TTITLE5=Much Too Young (To Feel This Damn Old)
TTITLE6=The Thunder Rolls
TTITLE7=American Honky-Tonk Bar Association
TTITLE8=If Tomorrow Never Comes
TTITLE9=Unanswered Prayers
TTITLE10=Standing Outside The Fire
TTITLE11=Rodeo
TTITLE12=What She's Doing Now
TTITLE13=We Shall Be Free
TTITLE14=Papa Loved Mama
TTITLE15=Shameless
TTITLE16=Two Of A Kind, Workin' On A Full House
TTITLE17=That Summer
TTITLE18=The Red strokes
TTITLE19=The Dance
EXTD=YEAR: 1995
EXTT0=
EXTT1=
EXTT2=
EXTT3=
EXTT4=
EXTT5=
EXTT6=
EXTT7=
EXTT8=
EXTT9=
EXTT10=
EXTT11=
EXTT12=
EXTT13=
EXTT14=
EXTT15=
EXTT16=
EXTT17=
EXTT18=
EXTT19=
PLAYORDER=
